<svg width="45" height="47" viewBox="0 0 45 47" fill="none" xmlns="http://www.w3.org/2000/svg">
<path fill-rule="evenodd" clip-rule="evenodd" d="M12.1101 4.10059L23.9829 8.5529L21.7781 14.4324L9.90527 9.98007L12.1101 4.10059Z" fill="white"/>
<path fill-rule="evenodd" clip-rule="evenodd" d="M31.1471 2.64664L35.0688 14.7052L29.0973 16.6472L25.1757 4.58865L31.1471 2.64664Z" fill="white"/>
<path fill-rule="evenodd" clip-rule="evenodd" d="M44.149 16.629L37.1664 27.2134L31.9249 23.7556L38.9076 13.1712L44.149 16.629Z" fill="white"/>
<path fill-rule="evenodd" clip-rule="evenodd" d="M41.327 35.5084L28.6982 36.6484L28.1336 30.3946L40.7625 29.2545L41.327 35.5084Z" fill="white"/>
<path fill-rule="evenodd" clip-rule="evenodd" d="M24.8036 45.0736L16.0383 35.9108L20.5758 31.5702L29.3411 40.733L24.8036 45.0736Z" fill="white"/>
<path fill-rule="evenodd" clip-rule="evenodd" d="M7.02306 38.1239L8.72179 25.558L14.9445 26.3992L13.2457 38.9651L7.02306 38.1239Z" fill="white"/>
<path fill-rule="evenodd" clip-rule="evenodd" d="M1.37467 19.8817L12.2582 13.3751L15.4803 18.7647L4.59677 25.2713L1.37467 19.8817Z" fill="white"/>
</svg>
